<?xml version="1.0" encoding="utf-8"?>
<!-- Generator: Adobe Illustrator 22.0.1, SVG Export Plug-In . SVG Version: 6.00 Build 0)  -->
<svg version="1.1" id="Capa_1" xmlns="http://www.w3.org/2000/svg" xmlns:xlink="http://www.w3.org/1999/xlink" x="0px" y="0px"
	 viewBox="0 0 1920 1080" style="enable-background:new 0 0 1920 1080;" xml:space="preserve">
<style type="text/css">
	.st0{fill:#FDED00;}
	.st1{fill:#95065C;}
	.st2{fill:#009ADA;}
	.st3{fill:#A1BC31;}
	.st4{fill:#E6E1DF;}
	.st5{fill:#765F55;}
	.st6{fill:#A99A94;}
	.st7{fill:#A2938C;}
	.st8{fill:#5F625D;}
	.st9{fill:#252621;}
	.st10{fill:#CBC3BF;}
	.st11{fill:#654A3B;}
	.st12{fill:#80AE38;}
	.st13{fill:#A3BF54;}
</style>
<rect class="st0" width="969" height="540"/>
<rect y="540" class="st1" width="960" height="540"/>
<rect x="960" class="st2" width="960" height="540"/>
<rect x="960" y="540" class="st3" width="960" height="540"/>
<g>
	<g>
		<path class="st4" d="M962.1,328.3c0,0,210.7,34.1,214,336.7H871.8C871.8,665,1065.1,459.4,962.1,328.3z"/>
		<g>
			<polygon class="st5" points="924.5,255.8 962.1,365.2 880.8,327.7 883.7,314.4 			"/>
			<path class="st5" d="M720.6,230.1c8.4-17.6,0.2-41.4-20.1-55.6s-45.5-13.6-59.1,0.3L621.4,161c19.9-22.7,58.9-24.1,90.2-2.3
				c31.2,21.8,43.3,59,28.9,85.4L720.6,230.1z"/>
			<polygon class="st6" points="653.1,357 885.2,312.4 895.5,334.3 620.4,416.1 			"/>
			<g>
				<path class="st5" d="M524.6,301.3c-3.3-4.4-78.4-106.8-22-155.1c22.3-19.1,48-20.2,72.5-3.1c22.3,15.6,36.7,41.5,37.3,42.6
					l3.6,6.6l-80.7,123.5L524.6,301.3z M560.7,163.7c-15.2-10.6-28.1-10.1-41.7,1.6c-28.3,24.3-0.7,78.9,15.7,105.7l51.9-79.4
					C581.6,184.1,572.3,171.8,560.7,163.7z"/>
			</g>
			<polygon class="st7" points="479.5,347.2 614.7,441.5 750.4,247 615.2,152.8 			"/>
			
				<rect x="665.5" y="126.6" transform="matrix(0.5723 -0.82 0.82 0.5723 117.9758 644.1508)" class="st7" width="22" height="164.7"/>
			<polygon class="st5" points="634.5,413.1 614.7,441.5 479.5,347.2 499.4,318.9 			"/>
		</g>
	</g>
	<g>
		<g>
			<path class="st8" d="M1333.2,521l-92.3-44.6l-92.3-44.6c0,0-101.7,207.4-8.3,252.6C1233.8,729.5,1333.2,521,1333.2,521z"/>
			<path class="st9" d="M1319.3,547.4c8.9-15.8,13.9-26.4,13.9-26.4l-184.6-89.2c0,0-5.2,10.5-12,27.3L1319.3,547.4z"/>
			<path class="st10" d="M1213,554.9c-6.5,5.9-16.9,0.8-16.3-7.9l0.4-2.8c1.3-9.3,4-18.3,8.1-26.8l194.1-401.4
				c3.4-7,11.9-10,18.9-6.6l0.3,0.1c7,3.4,10,11.9,6.5,18.9L1230.8,530c-4.4,9.2-10.5,17.6-17.7,24.8L1213,554.9z"/>
		</g>
		<g>
			<path class="st11" d="M1014.7,706.2c7-7.9,19.1-18.7,27.4-25.2c8.4-6.4,18.1-11.5,28.6-12.6c11.5-1.3,23,2.2,33.2,7.4
				c15.1,7.7,27.9,19.2,40.4,30.5c-18,12.3-39.5,19.1-61.2,20.4C1045.9,728.9,1014.7,706.2,1014.7,706.2z"/>
			<path class="st12" d="M1155.5,570.5c-2.5,6.7-6.7,12.9-12.7,16.6c-10,6.2-22.8,4.6-34.6,3.1c-11.7-1.5-24.8-2.3-34.1,5.1
				c2.3-15,4.9-30.8,14.7-42.2c9.6-11.2,24.5-16.4,39-19.1c14.6-2.7,29.4-3.4,43.5-8.1c-5.9,5.4-8.9,13.4-10.5,21.2
				C1159.1,554.8,1158.3,562.9,1155.5,570.5z"/>
			<path class="st13" d="M1109.4,574.1c-11,4.8-21.7,10.7-31.6,17.6c16.6-22.6,51.8-24.3,69.3-46.2c-2.4,7.8-8.5,14-15.5,18.3
				C1124.7,568,1117,570.8,1109.4,574.1z"/>
			<path class="st13" d="M1104.9,557.2c-6.5,9.2-13.1,18.4-19.7,27.6C1095,578.6,1100.8,568,1104.9,557.2z"/>
			<path class="st13" d="M1123.6,547.7c-3.4,8.6-8.5,16.5-14.9,23.3c2.5-1.8,3,0.3,5.3-1.8C1115.3,568,1123.6,559.3,1123.6,547.7z"
				/>
			<path class="st13" d="M1114,569.1c-0.5,0.1-1,0.2-1.2,0.6c-0.4,0.8,0.8,1.5,1.8,1.7c5,0.7,10.2,1.3,15.2,0.6
				c5-0.7,10.1-2.8,13.2-6.9C1133.4,566.4,1123.7,567.8,1114,569.1z"/>
			<path class="st13" d="M1133.7,579c-12.4,1.1-24.8,0.5-37.1-1.8c-0.1,2.5,2.6,4.1,4.9,4.8C1112,585.1,1123.2,582,1133.7,579z"/>
			<path class="st12" d="M1071.2,555.2c-7.4-14-22.2-22.9-37.6-26.2c-15.5-3.3-31.5-1.5-46.9,1.8c7.4,2.3,12.7,9,15.6,16.2
				c2.9,7.2,3.8,15,5.4,22.6s3.9,15.3,9,21.2c7.3,8.2,19.1,11.2,30,10.4c11-0.8,21.3-5,31.5-9.1
				C1077.7,579.4,1077.1,566.4,1071.2,555.2z"/>
			<path class="st13" d="M1040.4,563.7c-6.8-8.4-12.3-18.9-22.5-22.4c9.7,8.7,15.7,20.7,23.7,31c7.9,10.3,19.4,19.6,32.5,18.8
				C1061.8,583.1,1049.5,575,1040.4,563.7z"/>
			<path class="st13" d="M1051.6,551.3c-0.6,5.7-1.2,11.4-0.6,17.1c0.7,5.7,2.6,11.4,6.5,15.6c-0.2-3.9-1-7.8-1.8-11.6
				C1054.4,565.3,1053,558.2,1051.6,551.3z"/>
			<path class="st13" d="M1036.3,565.1c0.7,1.5,3.3,0.7,3.7-0.9c0.5-1.6-3.1-21.7-5.9-23.4C1034.9,548.9,1035.6,557,1036.3,565.1z"
				/>
			<path class="st13" d="M1038.2,568c0.8-0.1,1.8-0.3,2.3-1.1c0.5-0.8-0.1-1.9-0.8-2.5c-0.8-0.5-1.8-0.8-2.8-0.7
				c-7.9,1.3-12-0.3-19.7-1.4C1023.1,566.9,1030.9,568.9,1038.2,568z"/>
			<path class="st13" d="M1024.9,577.3c8.9,5.2,19.8,6.6,29.8,4c-0.3-0.9-0.6-1.9-0.9-2.8C1044.2,578.1,1034.6,577.7,1024.9,577.3z"
				/>
			<path class="st12" d="M1085.2,677.3c5.3-1.8,6.3-8.7,6.4-14.3c0.3-13.7,0.5-27.6-1.3-41.2c-1.8-13.6-5.8-27.2-13.3-38.7
				c-3.2,2.8-4.4,7.4-4.3,11.6c0.1,4.3,1.3,8.4,2.3,12.5c5,21.2,4,43.8-2.9,64.5C1075.6,675.1,1080.4,678.9,1085.2,677.3z"/>
		</g>
	</g>
</g>
</svg>
